<svg xmlns="http://www.w3.org/2000/svg" xmlns:xlink="http://www.w3.org/1999/xlink" width="23.668" height="23.668" viewBox="0 0 23.668 23.668"><defs><linearGradient id="a" x1="0.496" y1="0.116" x2="0.563" y2="1.389" gradientUnits="objectBoundingBox"><stop offset="0" stop-color="#faa68e"/><stop offset="0.206" stop-color="#fba682"/><stop offset="0.581" stop-color="#fda861"/><stop offset="1" stop-color="#ffa936"/></linearGradient><linearGradient id="b" x1="0.587" y1="1.089" x2="0.342" y2="-0.904" gradientUnits="objectBoundingBox"><stop offset="0" stop-color="#f82814" stop-opacity="0"/><stop offset="0.245" stop-color="#f12817" stop-opacity="0.243"/><stop offset="0.605" stop-color="#dd2820" stop-opacity="0.604"/><stop offset="1" stop-color="#c0272d"/></linearGradient><linearGradient id="c" x1="0.615" y1="0.563" x2="0.364" y2="-0.243" xlink:href="#b"/><linearGradient id="d" x1="7.904" y1="-61.605" x2="9.288" y2="-59.685" xlink:href="#b"/><linearGradient id="e" x1="12.256" y1="-81.333" x2="13.64" y2="-79.413" xlink:href="#b"/><linearGradient id="f" x1="13.031" y1="-136.027" x2="14.416" y2="-134.108" xlink:href="#b"/><linearGradient id="g" x1="-28.647" y1="-71.836" x2="-27.263" y2="-69.916" xlink:href="#b"/><linearGradient id="h" x1="-33.217" y1="-92.888" x2="-31.832" y2="-90.969" xlink:href="#b"/><linearGradient id="i" x1="-60.66" y1="-157.617" x2="-59.275" y2="-155.697" xlink:href="#b"/><linearGradient id="j" x1="0.5" y1="0.31" x2="0.5" y2="1.368" xlink:href="#b"/><linearGradient id="k" x1="0.5" y1="0.096" x2="0.5" y2="1.143" gradientUnits="objectBoundingBox"><stop offset="0" stop-color="#a57c52"/><stop offset="0.134" stop-color="#a26c4a"/><stop offset="0.516" stop-color="#994336"/><stop offset="0.817" stop-color="#942a2a"/><stop offset="1" stop-color="#922125"/></linearGradient><linearGradient id="l" x1="0.505" y1="0.575" x2="0.496" y2="-0.283" gradientUnits="objectBoundingBox"><stop offset="0" stop-color="#42210b" stop-opacity="0"/><stop offset="1" stop-color="#42210b"/></linearGradient><linearGradient id="m" x1="0.807" y1="0.937" x2="0.325" y2="0.111" xlink:href="#l"/><linearGradient id="n" x1="0.546" y1="1.139" x2="0.493" y2="0.366" xlink:href="#l"/><linearGradient id="o" x1="0.419" y1="0.088" x2="0.825" y2="0.781" gradientUnits="objectBoundingBox"><stop offset="0" stop-color="#ffd945"/><stop offset="0.304" stop-color="#ffcd3e"/><stop offset="0.856" stop-color="#ffad2b"/><stop offset="1" stop-color="#ffa325"/></linearGradient><linearGradient id="p" x1="0.5" y1="0.355" x2="0.5" y2="1.112" gradientUnits="objectBoundingBox"><stop offset="0" stop-color="#bada00"/><stop offset="0.227" stop-color="#b0ce00"/><stop offset="0.638" stop-color="#95ae00"/><stop offset="1" stop-color="#798c00"/></linearGradient><linearGradient id="q" x1="0.499" y1="0.861" x2="0.501" y2="0.155" gradientUnits="objectBoundingBox"><stop offset="0" stop-color="#798c00" stop-opacity="0"/><stop offset="0.654" stop-color="#556100" stop-opacity="0.655"/><stop offset="1" stop-color="#464f00"/></linearGradient><linearGradient id="r" x1="0.577" y1="0.89" x2="0.236" y2="-0.42" xlink:href="#q"/><linearGradient id="s" x1="0.635" y1="1.058" x2="0.345" y2="0.204" xlink:href="#q"/><linearGradient id="t" x1="0.351" y1="0.239" x2="0.791" y2="0.788" gradientUnits="objectBoundingBox"><stop offset="0" stop-color="#ffdecf"/><stop offset="0.379" stop-color="#fdc4b0"/><stop offset="0.766" stop-color="#fbae97"/><stop offset="1" stop-color="#faa68e"/></linearGradient><linearGradient id="u" x1="0.5" y1="0.511" x2="0.5" y2="0.986" gradientUnits="objectBoundingBox"><stop offset="0" stop-color="#ff6359"/><stop offset="0.224" stop-color="#fe5b50"/><stop offset="0.595" stop-color="#fc4637"/><stop offset="1" stop-color="#f82814"/></linearGradient><linearGradient id="v" x1="0.563" y1="1.18" x2="0.414" y2="0.088" gradientUnits="objectBoundingBox"><stop offset="0" stop-color="#f82814" stop-opacity="0"/><stop offset="1" stop-color="#c0272d"/></linearGradient><linearGradient id="w" x1="0.607" y1="1.091" x2="0.531" y2="0.537" xlink:href="#v"/><linearGradient id="z" x1="0.637" y1="1.203" x2="0.452" y2="0.172" xlink:href="#l"/><linearGradient id="ab" x1="0.528" y1="1.044" x2="0.399" y2="0.284" xlink:href="#l"/><linearGradient id="ag" x1="0.499" y1="1.011" x2="0.5" y2="0.22" xlink:href="#v"/><linearGradient id="ah" x1="0.448" y1="0.135" x2="0.541" y2="1.126" xlink:href="#a"/><linearGradient id="ai" x1="-33.006" y1="-20.629" x2="-31.622" y2="-18.709" xlink:href="#b"/><linearGradient id="aj" x1="-39.559" y1="-29.434" x2="-38.175" y2="-27.515" xlink:href="#b"/><linearGradient id="ak" x1="-72.919" y1="-49.939" x2="-71.534" y2="-48.02" xlink:href="#b"/><linearGradient id="al" x1="-53.805" y1="-5.822" x2="-52.421" y2="-3.902" xlink:href="#b"/><linearGradient id="am" x1="-65.088" y1="-9.26" x2="-63.703" y2="-7.34" xlink:href="#b"/><linearGradient id="an" x1="-113.513" y1="-18.931" x2="-112.128" y2="-17.012" xlink:href="#b"/><linearGradient id="ao" x1="0.5" y1="0.259" x2="0.5" y2="1.259" gradientUnits="objectBoundingBox"><stop offset="0" stop-color="#f82814" stop-opacity="0"/><stop offset="0.25" stop-color="#f32816" stop-opacity="0.251"/><stop offset="0.542" stop-color="#e5281d" stop-opacity="0.541"/><stop offset="0.855" stop-color="#ce2727" stop-opacity="0.855"/><stop offset="1" stop-color="#c0272d"/></linearGradient><linearGradient id="ap" x1="0.452" y1="0.18" x2="0.634" y2="1.388" xlink:href="#t"/><linearGradient id="at" x1="0.452" y1="0.18" x2="0.634" y2="1.388" xlink:href="#t"/><linearGradient id="bd" x1="3.311" y1="-16.738" x2="3.496" y2="-15.617" xlink:href="#t"/><linearGradient id="be" x1="-63.67" y1="13.431" x2="-63.485" y2="14.552" xlink:href="#t"/></defs><g transform="translate(0.206 18.825)"><path d="M4.446,406.434a3.329,3.329,0,0,0,2.647,3.258,45.837,45.837,0,0,0,8.981.786,45.837,45.837,0,0,0,8.981-.786,3.329,3.329,0,0,0,2.647-3.257.8.8,0,0,0-1.034-.764,39.116,39.116,0,0,1-10.593,1.2,39.114,39.114,0,0,1-10.593-1.2.8.8,0,0,0-1.034.764Z" transform="translate(-4.446 -405.633)" fill="url(#a)"/><path d="M202.666,420.312l3.645,3.645a43.611,43.611,0,0,0,7.765-.773,3.324,3.324,0,0,0,1.524-.766l-2.635-2.635a49.3,49.3,0,0,1-7.87.578C204.264,420.361,203.452,420.344,202.666,420.312Z" transform="translate(-193.467 -419.126)" fill="url(#b)"/><path d="M410.082,405.67a22.972,22.972,0,0,1-3.561.749l2.909,2.91a3.328,3.328,0,0,0,1.687-2.895A.8.8,0,0,0,410.082,405.67Z" transform="translate(-387.861 -405.633)" fill="url(#c)"/><g transform="translate(2.154 1.476)" opacity="0.6"><circle cx="0.391" cy="0.391" r="0.391" transform="translate(0.644)" fill="url(#d)"/><circle cx="0.309" cy="0.309" r="0.309" transform="translate(0 1.094)" fill="url(#e)"/><circle cx="0.186" cy="0.186" r="0.186" transform="translate(1.469 1.476)" fill="url(#f)"/><g transform="translate(1.96 0.397)"><circle cx="0.289" cy="0.289" r="0.289" transform="translate(0.854)" fill="url(#g)"/><circle cx="0.228" cy="0.228" r="0.228" transform="translate(0 0.159)" fill="url(#h)"/><circle cx="0.138" cy="0.138" r="0.138" transform="translate(0.611 1.119)" fill="url(#i)"/></g></g><path d="M10.175,450.946a3.331,3.331,0,0,0,2.381,1.955,45.837,45.837,0,0,0,8.981.786,45.837,45.837,0,0,0,8.981-.786,3.33,3.33,0,0,0,2.381-1.955Z" transform="translate(-9.909 -448.843)" fill="url(#j)"/></g><path d="M4.446,338.332v.75a2.379,2.379,0,0,0,1.782,2.307,42.541,42.541,0,0,0,9.846.986,42.541,42.541,0,0,0,9.846-.986,2.379,2.379,0,0,0,1.782-2.307v-.75a.8.8,0,0,0-1.034-.764,39.114,39.114,0,0,1-10.593,1.2,39.114,39.114,0,0,1-10.593-1.2.8.8,0,0,0-1.034.764Z" transform="translate(-4.24 -321.867)" fill="url(#k)"/><path d="M32.136,337.568a39.113,39.113,0,0,1-10.593,1.2,39.113,39.113,0,0,1-10.593-1.2.79.79,0,0,0-.768.169l4.165,4.165a51.156,51.156,0,0,0,7.2.473,42.541,42.541,0,0,0,9.846-.986,2.379,2.379,0,0,0,1.782-2.307v-.75A.8.8,0,0,0,32.136,337.568Z" transform="translate(-9.709 -321.867)" fill="url(#l)"/><path d="M383.9,339.643v-.527l-1-1-.038.009a26.462,26.462,0,0,1-4.886.912v1.289a.937.937,0,0,0,.336.72l1.38,1.38c.9-.137,1.716-.3,2.423-.479A2.379,2.379,0,0,0,383.9,339.643Z" transform="translate(-360.434 -322.428)" fill="url(#m)"/><path d="M154.61,359.344c-1.554.143-3.266.223-5.065.223s-3.5-.079-5.044-.221a.7.7,0,0,0,.115.833l2.964,2.964q.96.032,1.964.032a48.2,48.2,0,0,0,8.252-.644Z" transform="translate(-137.711 -342.667)" fill="url(#n)"/><path d="M154.176,338.218a15.992,15.992,0,0,0-9.275,0,.7.7,0,0,0-.291,1.16l3.6,3.6a1.884,1.884,0,0,0,2.664,0l3.6-3.6A.7.7,0,0,0,154.176,338.218Z" transform="translate(-137.704 -321.867)" fill="url(#o)"/><path d="M27.7,277.525c0-3.289-23.256-3.289-23.256,0,0,.567.692,1.036,1.836,1.408a3.011,3.011,0,0,1,1.12.651l.034.032a2.434,2.434,0,0,0,2.584.464h0a2.44,2.44,0,0,1,2.282.222l.064.043a2.407,2.407,0,0,0,2.489.106l.06-.033a2.407,2.407,0,0,1,2.315,0l.06.033a2.407,2.407,0,0,0,2.489-.106l.078-.052a2.408,2.408,0,0,1,2.268-.213,2.407,2.407,0,0,0,2.572-.453l.047-.043a3.009,3.009,0,0,1,1.12-.651c1.144-.371,1.836-.841,1.836-1.408Z" transform="translate(-4.24 -262.293)" fill="url(#p)"/><path d="M39.97,277.526c0,.567-.692,1.036-1.836,1.407a3.019,3.019,0,0,0-1.12.652l-.047.043a2.406,2.406,0,0,1-2.572.452,2.409,2.409,0,0,0-2.268.213l-.078.052a2.408,2.408,0,0,1-2.489.106l-.06-.033a2.408,2.408,0,0,0-2.315,0l-.06.033a2.407,2.407,0,0,1-2.489-.106l-.065-.043a2.439,2.439,0,0,0-2.282-.223h0a2.432,2.432,0,0,1-1.587.094l-2.993-2.993a2,2,0,0,1-.4-.509c1.339-.886,4.762-1.407,8.554-1.563,1.629-.067,3.326-.067,4.955,0,4.881.2,9.15,1.007,9.15,2.416Z" transform="translate(-16.508 -262.294)" fill="url(#q)"/><path d="M46.856,277.456a26.235,26.235,0,0,0-6.306,1,.939.939,0,0,0,.354.556l3.406,3.406c.047-.016.094-.033.14-.052h0a2.44,2.44,0,0,1,2.282.223l.064.043a2.407,2.407,0,0,0,2.489.106l.06-.033a2.407,2.407,0,0,1,2.315,0l.06.033a2.4,2.4,0,0,0,.661.244Z" transform="translate(-38.668 -264.58)" fill="url(#r)"/><path d="M381.946,317.567h-3.971V320.5a2.412,2.412,0,0,1,.346.115,2.408,2.408,0,0,0,2.572-.453l.047-.043a3.011,3.011,0,0,1,1.12-.651,5.212,5.212,0,0,0,1.235-.553Z" transform="translate(-360.434 -302.829)" fill="url(#s)"/><path d="M377.975,317.567v3.164a.939.939,0,0,0,1.879,0v-.641a.325.325,0,1,1,.651,0v.052a.721.721,0,1,0,1.441,0v-2.575Z" transform="translate(-360.434 -302.829)" fill="url(#t)"/><path d="M11.871,257.659v.052a2.014,2.014,0,0,0,1.479,1.945,40.207,40.207,0,0,0,9.8,1.023,40.207,40.207,0,0,0,9.8-1.023,2.014,2.014,0,0,0,1.479-1.945v-.052a1.461,1.461,0,0,0-1.817-1.417,41.613,41.613,0,0,1-9.466.935,41.617,41.617,0,0,1-9.466-.935A1.461,1.461,0,0,0,11.871,257.659Z" transform="translate(-11.32 -244.307)" fill="url(#u)"/><path d="M46.282,257.053a33.721,33.721,0,0,1-5.688-.81,1.463,1.463,0,0,0-.508-.037v1.786a.937.937,0,0,0,.375.75l1.249,1.249a45.453,45.453,0,0,0,8.2.688Z" transform="translate(-38.226 -244.308)" fill="url(#v)"/><path d="M254.456,257.4a41.789,41.789,0,0,1-9.421.924l-.485,0,3.429,3.429a34.179,34.179,0,0,0,6.86-.948,2.011,2.011,0,0,0,1.444-1.575Z" transform="translate(-233.201 -245.451)" fill="url(#w)"/><path d="M4.446,211.564v.75a2.379,2.379,0,0,0,1.782,2.307,42.543,42.543,0,0,0,9.846.986,42.543,42.543,0,0,0,9.846-.986,2.379,2.379,0,0,0,1.782-2.307v-.75a.8.8,0,0,0-1.034-.764A39.116,39.116,0,0,1,16.074,212,39.116,39.116,0,0,1,5.48,210.8a.8.8,0,0,0-1.034.764Z" transform="translate(-4.24 -200.982)" fill="url(#k)"/><path d="M32.136,210.8A39.115,39.115,0,0,1,21.543,212a39.115,39.115,0,0,1-10.593-1.2.79.79,0,0,0-.768.168l4.165,4.165a51.147,51.147,0,0,0,7.2.473,42.542,42.542,0,0,0,9.846-.986,2.379,2.379,0,0,0,1.782-2.307v-.75a.8.8,0,0,0-1.034-.764Z" transform="translate(-9.709 -200.982)" fill="url(#l)"/><path d="M226.086,227.572l-2.791-2.791a49.2,49.2,0,0,1-7.907.584q-.974,0-1.911-.031a.689.689,0,0,0,.187.643l2.964,2.964.368.011a39.431,39.431,0,0,0,8.237-.964A2.351,2.351,0,0,0,226.086,227.572Z" transform="translate(-203.553 -214.349)" fill="url(#z)"/><path d="M223.215,211.45a15.992,15.992,0,0,0-9.275,0,.7.7,0,0,0-.291,1.16l3.6,3.6a1.884,1.884,0,0,0,2.664,0l3.6-3.6A.7.7,0,0,0,223.215,211.45Z" transform="translate(-203.539 -200.982)" fill="url(#o)"/><path d="M40.215,229.785a38.77,38.77,0,0,0,7.917.955l-3.874-3.874c-.542-.059-1.062-.126-1.556-.2H40.087v3.082C40.129,229.761,40.172,229.774,40.215,229.785Z" transform="translate(-38.227 -216.146)" fill="url(#ab)"/><path d="M40.087,226.665v3.164a.939.939,0,0,0,1.879,0v-.641a.325.325,0,1,1,.651,0v.052a.721.721,0,0,0,1.441,0v-2.575Z" transform="translate(-38.227 -216.146)" fill="url(#t)"/><path d="M27.7,150.757c0-3.289-23.256-3.289-23.256,0,0,.567.692,1.036,1.836,1.408a3.011,3.011,0,0,1,1.12.651l.034.032a2.434,2.434,0,0,0,2.584.464h0a2.44,2.44,0,0,1,2.282.222l.064.043a2.407,2.407,0,0,0,2.489.106l.06-.033a2.407,2.407,0,0,1,2.315,0l.06.033a2.407,2.407,0,0,0,2.489-.106l.078-.052a2.408,2.408,0,0,1,2.268-.213,2.407,2.407,0,0,0,2.572-.453l.047-.043a3.009,3.009,0,0,1,1.12-.651c1.144-.372,1.836-.841,1.836-1.408Z" transform="translate(-4.24 -141.408)" fill="url(#p)"/><path d="M39.97,150.764c0,.567-.692,1.036-1.836,1.407a3.018,3.018,0,0,0-1.12.652l-.047.043a2.407,2.407,0,0,1-2.572.452,2.409,2.409,0,0,0-2.268.213l-.078.052a2.408,2.408,0,0,1-2.489.106l-.06-.033a2.408,2.408,0,0,0-2.315,0l-.06.033a2.407,2.407,0,0,1-2.489-.106l-.065-.043a2.439,2.439,0,0,0-2.282-.223h0a2.432,2.432,0,0,1-1.587.094l-2.993-2.993a2,2,0,0,1-.4-.509c1.339-.886,4.762-1.407,8.554-1.563,1.629-.067,3.326-.067,4.955,0C35.7,148.549,39.97,149.354,39.97,150.764Z" transform="translate(-16.508 -141.415)" fill="url(#q)"/><path d="M11.871,130.891v.052a2.014,2.014,0,0,0,1.479,1.945,40.208,40.208,0,0,0,9.8,1.023,40.207,40.207,0,0,0,9.8-1.023,2.014,2.014,0,0,0,1.479-1.945v-.052a1.461,1.461,0,0,0-1.817-1.417,41.614,41.614,0,0,1-9.466.935,41.617,41.617,0,0,1-9.466-.935A1.461,1.461,0,0,0,11.871,130.891Z" transform="translate(-11.32 -123.423)" fill="url(#u)"/><path d="M36.448,130.891v.052a2.015,2.015,0,0,1-1.479,1.945,40.223,40.223,0,0,1-9.8,1.022,45.85,45.85,0,0,1-8.319-.682l-2.867-2.867a1.463,1.463,0,0,1,1.719-.888,41.62,41.62,0,0,0,9.466.934,41.62,41.62,0,0,0,9.466-.934A1.461,1.461,0,0,1,36.448,130.891Z" transform="translate(-13.33 -123.422)" fill="url(#ag)"/><g transform="translate(0 0.231)"><path d="M23.668,10.942c0,3.289-23.668,3.289-23.668,0S5.3,4.986,11.834,4.986,23.668,7.652,23.668,10.942Z" transform="translate(0 -4.986)" fill="url(#ah)"/><g transform="translate(18.805 4.482)" opacity="0.6"><circle cx="0.391" cy="0.391" r="0.391" transform="translate(0.644)" fill="url(#ai)"/><circle cx="0.309" cy="0.309" r="0.309" transform="translate(0 1.094)" fill="url(#aj)"/><circle cx="0.186" cy="0.186" r="0.186" transform="translate(1.469 1.476)" fill="url(#ak)"/><g transform="translate(1.96 0.397)"><circle cx="0.289" cy="0.289" r="0.289" transform="translate(0.854)" fill="url(#al)"/><circle cx="0.228" cy="0.228" r="0.228" transform="translate(0 0.159)" fill="url(#am)"/><circle cx="0.138" cy="0.138" r="0.138" transform="translate(0.611 1.119)" fill="url(#an)"/></g></g><path d="M0,97.475c0,3.289,23.668,3.289,23.668,0a3.333,3.333,0,0,0-.516-1.744H.516A3.333,3.333,0,0,0,0,97.475Z" transform="translate(0 -91.52)" fill="url(#ao)"/></g><g transform="translate(4.142)"><g transform="translate(1.761 4.892)"><ellipse cx="0.648" cy="0.284" rx="0.648" ry="0.284" fill="url(#ap)"/><ellipse cx="0.648" cy="0.284" rx="0.648" ry="0.284" transform="translate(3.522)" fill="url(#ap)"/><ellipse cx="0.648" cy="0.284" rx="0.648" ry="0.284" transform="translate(7.045)" fill="url(#ap)"/><ellipse cx="0.648" cy="0.284" rx="0.648" ry="0.284" transform="translate(10.567)" fill="url(#ap)"/></g><g transform="translate(0 3.261)"><ellipse cx="0.648" cy="0.284" rx="0.648" ry="0.284" fill="url(#at)"/><ellipse cx="0.648" cy="0.284" rx="0.648" ry="0.284" transform="translate(3.522)" fill="url(#at)"/><ellipse cx="0.648" cy="0.284" rx="0.648" ry="0.284" transform="translate(7.045)" fill="url(#at)"/><ellipse cx="0.648" cy="0.284" rx="0.648" ry="0.284" transform="translate(10.567)" fill="url(#at)"/><ellipse cx="0.648" cy="0.284" rx="0.648" ry="0.284" transform="translate(14.09)" fill="url(#at)"/></g><g transform="translate(1.761 1.631)"><ellipse cx="0.648" cy="0.284" rx="0.648" ry="0.284" fill="url(#ap)"/><ellipse cx="0.648" cy="0.284" rx="0.648" ry="0.284" transform="translate(3.522)" fill="url(#ap)"/><ellipse cx="0.648" cy="0.284" rx="0.648" ry="0.284" transform="translate(7.045)" fill="url(#ap)"/><ellipse cx="0.648" cy="0.284" rx="0.648" ry="0.284" transform="translate(10.567)" fill="url(#ap)"/></g><ellipse cx="0.648" cy="0.284" rx="0.648" ry="0.284" transform="translate(7.045)" fill="url(#ap)"/><g transform="translate(3.598 0.168)"><path d="M317.013,4.044c-.031.154-.34.221-.691.151s-.61-.251-.579-.405.34-.221.691-.151S317.044,3.89,317.013,4.044Z" transform="translate(-308.828 -3.611)" fill="url(#bd)"/><path d="M166.786,4.044c.031.154.34.221.691.151s.61-.251.579-.405-.34-.221-.691-.151S166.756,3.89,166.786,4.044Z" transform="translate(-166.784 -3.611)" fill="url(#be)"/></g></g></svg>