<svg xmlns="http://www.w3.org/2000/svg" xmlns:xlink="http://www.w3.org/1999/xlink" width="27.376" height="28.24" viewBox="0 0 27.376 28.24"><defs><linearGradient id="a" x1="0.671" y1="0.28" x2="0.498" y2="0.645" gradientUnits="objectBoundingBox"><stop offset="0" stop-color="#ffd945"/><stop offset="0.304" stop-color="#ffcd3e"/><stop offset="0.856" stop-color="#ffad2b"/><stop offset="1" stop-color="#ffa325"/></linearGradient><linearGradient id="b" x1="0.74" y1="0.573" x2="0.349" y2="0.479" gradientUnits="objectBoundingBox"><stop offset="0" stop-color="#f82814" stop-opacity="0"/><stop offset="0.245" stop-color="#f12817" stop-opacity="0.243"/><stop offset="0.605" stop-color="#dd2820" stop-opacity="0.604"/><stop offset="1" stop-color="#c0272d"/></linearGradient><linearGradient id="c" x1="0.659" y1="0.357" x2="0.581" y2="0.427" gradientUnits="objectBoundingBox"><stop offset="0" stop-color="#bada00"/><stop offset="0.227" stop-color="#b0ce00"/><stop offset="0.638" stop-color="#95ae00"/><stop offset="1" stop-color="#798c00"/></linearGradient><linearGradient id="d" x1="0.586" y1="0.498" x2="0.137" y2="0.467" gradientUnits="objectBoundingBox"><stop offset="0" stop-color="#798c00" stop-opacity="0"/><stop offset="0.654" stop-color="#556100" stop-opacity="0.655"/><stop offset="1" stop-color="#464f00"/></linearGradient><linearGradient id="e" x1="0.592" y1="0.1" x2="0.452" y2="0.707" gradientUnits="objectBoundingBox"><stop offset="0" stop-color="#ff6359"/><stop offset="0.224" stop-color="#fe5b50"/><stop offset="0.595" stop-color="#fc4637"/><stop offset="1" stop-color="#f82814"/></linearGradient><linearGradient id="g" x1="13.009" y1="-1.914" x2="13.28" y2="-1.362" gradientUnits="objectBoundingBox"><stop offset="0" stop-color="#ffdecf"/><stop offset="0.379" stop-color="#fdc4b0"/><stop offset="0.766" stop-color="#fbae97"/><stop offset="1" stop-color="#faa68e"/></linearGradient><linearGradient id="h" x1="-5.729" y1="-42.157" x2="-5.459" y2="-41.605" xlink:href="#g"/><linearGradient id="i" x1="12.347" y1="-0.58" x2="12.617" y2="-0.028" xlink:href="#g"/><linearGradient id="j" x1="-1.857" y1="-40.232" x2="-1.587" y2="-39.681" xlink:href="#g"/><linearGradient id="k" x1="1.036" y1="1.055" x2="0.87" y2="1.209" gradientUnits="objectBoundingBox"><stop offset="0" stop-color="#a57c52"/><stop offset="0.134" stop-color="#a26c4a"/><stop offset="0.516" stop-color="#994336"/><stop offset="0.817" stop-color="#942a2a"/><stop offset="1" stop-color="#922125"/></linearGradient><linearGradient id="l" x1="0.5" y1="0.056" x2="0.5" y2="1.035" xlink:href="#a"/><linearGradient id="m" x1="0.588" y1="0.429" x2="0.528" y2="0.477" xlink:href="#c"/><linearGradient id="n" x1="0.665" y1="0.322" x2="0.495" y2="0.67" xlink:href="#a"/><linearGradient id="o" x1="0.595" y1="0.476" x2="0.505" y2="0.575" gradientUnits="objectBoundingBox"><stop offset="0" stop-color="#f82814" stop-opacity="0"/><stop offset="0.292" stop-color="#ec2819" stop-opacity="0.29"/><stop offset="0.817" stop-color="#cd2727" stop-opacity="0.816"/><stop offset="1" stop-color="#c0272d"/></linearGradient><linearGradient id="p" x1="0.153" y1="0.269" x2="0.598" y2="1.155" gradientUnits="objectBoundingBox"><stop offset="0" stop-color="#faa68e"/><stop offset="0.206" stop-color="#fba682"/><stop offset="0.581" stop-color="#fda861"/><stop offset="1" stop-color="#ffa936"/></linearGradient><linearGradient id="q" x1="0.5" y1="0.604" x2="0.5" y2="1.423" xlink:href="#b"/><linearGradient id="r" x1="133.837" y1="-279.806" x2="135.221" y2="-277.886" xlink:href="#b"/><linearGradient id="s" x1="172.524" y1="-356.718" x2="173.908" y2="-354.798" xlink:href="#b"/><linearGradient id="t" x1="280.045" y1="-594.921" x2="281.43" y2="-593.001" xlink:href="#b"/><linearGradient id="u" x1="87.566" y1="-222.403" x2="88.951" y2="-220.484" xlink:href="#b"/><linearGradient id="v" x1="111.877" y1="-285.405" x2="113.261" y2="-283.486" xlink:href="#b"/><linearGradient id="w" x1="178.668" y1="-472.17" x2="180.052" y2="-470.25" xlink:href="#b"/><linearGradient id="x" x1="-21.959" y1="-372.738" x2="-20.574" y2="-370.818" xlink:href="#b"/><linearGradient id="y" x1="-25.009" y1="-472.795" x2="-23.625" y2="-470.876" xlink:href="#b"/><linearGradient id="z" x1="-44.797" y1="-788.257" x2="-43.412" y2="-786.337" xlink:href="#b"/><linearGradient id="aa" x1="-51.583" y1="-379.653" x2="-50.198" y2="-377.733" xlink:href="#b"/><linearGradient id="ab" x1="-62.534" y1="-481.556" x2="-61.149" y2="-479.636" xlink:href="#b"/><linearGradient id="ac" x1="-107.035" y1="-802.786" x2="-105.651" y2="-800.868" xlink:href="#b"/><linearGradient id="ad" x1="0.564" y1="0.505" x2="0.397" y2="0.71" xlink:href="#a"/><linearGradient id="ae" x1="0.669" y1="0.275" x2="0.495" y2="0.635" xlink:href="#a"/><linearGradient id="ak" x1="14.207" y1="-1.761" x2="14.477" y2="-1.209" xlink:href="#g"/><linearGradient id="al" x1="-5.285" y1="-45.632" x2="-5.015" y2="-45.08" xlink:href="#g"/><linearGradient id="am" x1="13.544" y1="-0.427" x2="13.814" y2="0.125" xlink:href="#g"/><linearGradient id="an" x1="-1.413" y1="-43.707" x2="-1.143" y2="-43.156" xlink:href="#g"/><linearGradient id="ao" x1="1.039" y1="1.047" x2="0.872" y2="1.201" xlink:href="#k"/><linearGradient id="ar" x1="0.662" y1="0.314" x2="0.493" y2="0.654" xlink:href="#a"/><linearGradient id="as" x1="0.599" y1="0.471" x2="0.509" y2="0.567" xlink:href="#o"/><linearGradient id="at" x1="0.174" y1="0.268" x2="0.604" y2="1.14" xlink:href="#a"/><linearGradient id="av" x1="137.004" y1="-298" x2="138.388" y2="-296.081" xlink:href="#b"/><linearGradient id="aw" x1="176.536" y1="-379.765" x2="177.92" y2="-377.845" xlink:href="#b"/><linearGradient id="ax" x1="286.699" y1="-633.155" x2="288.084" y2="-631.235" xlink:href="#b"/><linearGradient id="ay" x1="101.381" y1="-234.994" x2="102.766" y2="-233.075" xlink:href="#b"/><linearGradient id="az" x1="129.377" y1="-301.354" x2="130.762" y2="-299.435" xlink:href="#b"/><linearGradient id="ba" x1="207.7" y1="-498.627" x2="209.085" y2="-496.708" xlink:href="#b"/><linearGradient id="bb" x1="-26.657" y1="-391.276" x2="-25.272" y2="-389.356" xlink:href="#b"/><linearGradient id="bc" x1="-30.959" y1="-496.28" x2="-29.575" y2="-494.361" xlink:href="#b"/><linearGradient id="bd" x1="-54.666" y1="-827.208" x2="-53.281" y2="-825.288" xlink:href="#b"/><linearGradient id="be" x1="-56.281" y1="-398.192" x2="-54.896" y2="-396.273" xlink:href="#b"/><linearGradient id="bf" x1="-68.485" y1="-505.039" x2="-67.1" y2="-503.12" xlink:href="#b"/><linearGradient id="bg" x1="-116.904" y1="-841.737" x2="-115.52" y2="-839.817" xlink:href="#b"/></defs><g transform="translate(4.183)"><path d="M106.116,18.22a.8.8,0,0,0,.225-1.244L91.39.267a.8.8,0,0,0-1.04-.133L86.835,2.22c-.182.1-3.284,14.98-3.479,17.247a.8.8,0,0,0,.678.86,73.83,73.83,0,0,0,9.552.292,75.486,75.486,0,0,0,8.675-.188.8.8,0,0,0,.339-.125Z" transform="translate(-83.353 0)" fill="url(#a)"/><path d="M399.858,257.1l-2.595-2.9-3.187,3.187,2.038,3.046,0,0,3.515-2.086A.8.8,0,0,0,399.858,257.1Z" transform="translate(-376.87 -240.12)" fill="url(#b)"/><path d="M174.41,30.213c-2.7,2.391,12.244,19.262,14.943,16.871.465-.412.406-1.255-.024-2.356a2.86,2.86,0,0,1-.185-1.286l0-.048a2.155,2.155,0,0,0-1.28-2.212h0a2.132,2.132,0,0,1-1.284-1.817l-.006-.078a2.105,2.105,0,0,0-1.513-1.883l-.066-.02a2.1,2.1,0,0,1-1.487-1.679l-.012-.068a2.105,2.105,0,0,0-1.687-1.729l-.093-.019a2.1,2.1,0,0,1-1.632-1.49,2.131,2.131,0,0,0-2.024-1.537l-.066,0a2.86,2.86,0,0,1-1.254-.339C175.705,29.962,174.876,29.8,174.41,30.213Z" transform="translate(-169.062 -28.322)" fill="url(#c)"/><path d="M278.678,118.4a2.86,2.86,0,0,1-.185-1.286l0-.048a2.157,2.157,0,0,0-1.28-2.212h0a2.134,2.134,0,0,1-1.284-1.817l-.006-.077a2.105,2.105,0,0,0-1.513-1.883l-.065-.019a2.1,2.1,0,0,1-1.488-1.679l-.012-.068a2.1,2.1,0,0,0-.808-1.338,2.672,2.672,0,0,1-.627,2.787l-2.742,2.742c3.839,4.471,8.616,8.508,10.031,7.255C279.168,120.343,279.109,119.5,278.678,118.4Z" transform="translate(-258.41 -101.992)" fill="url(#d)"/><circle cx="2.433" cy="2.433" r="2.433" transform="translate(5.199 2.165)" fill="url(#e)"/><circle cx="2.433" cy="2.433" r="2.433" transform="translate(13.081 10.525)" fill="url(#e)"/><g transform="translate(15.275 12.044)"><path d="M363.77,218.3a2.671,2.671,0,1,0,0,3.777A2.671,2.671,0,0,0,363.77,218.3Zm-3.088,3.088a1.7,1.7,0,1,1,2.4,0A1.7,1.7,0,0,1,360.683,221.386Z" transform="translate(-359.211 -217.516)" fill="url(#g)"/><path d="M367.973,229.418a2.222,2.222,0,1,0,0-3.142A2.222,2.222,0,0,0,367.973,229.418Zm2.77-2.77a1.7,1.7,0,1,1-2.4,0A1.7,1.7,0,0,1,370.744,226.648Z" transform="translate(-366.873 -225.177)" fill="url(#h)"/></g><g transform="translate(8.444 4.206)"><path d="M240.407,76.746a2.671,2.671,0,1,0,0,3.777A2.671,2.671,0,0,0,240.407,76.746Zm-3.088,3.088a1.7,1.7,0,1,1,2.4,0A1.7,1.7,0,0,1,237.319,79.834Z" transform="translate(-235.848 -75.964)" fill="url(#i)"/><path d="M244.609,87.866a2.222,2.222,0,1,0,0-3.142A2.222,2.222,0,0,0,244.609,87.866Zm2.77-2.77a1.7,1.7,0,1,1-2.4,0A1.7,1.7,0,0,1,247.38,85.1Z" transform="translate(-243.51 -83.625)" fill="url(#j)"/></g><path d="M194.315,64.825l.383-.35a1.731,1.731,0,0,0,.182-2.171,42.166,42.166,0,0,0-5.01-6.5,42.173,42.173,0,0,0-6.018-5.583,1.731,1.731,0,0,0-2.178-.017l-.383.35a.651.651,0,0,0,.189.991,38.7,38.7,0,0,1,6.546,5.943,38.7,38.7,0,0,1,5.32,7.061A.651.651,0,0,0,194.315,64.825Z" transform="translate(-175.717 -47.066)" fill="url(#k)"/><path d="M225.939,101.087a7.014,7.014,0,0,0,2.876,2.876.306.306,0,0,0,.45-.27v-2.23a.826.826,0,0,0-.826-.826h-2.23a.306.306,0,0,0-.269.45Z" transform="translate(-218.009 -95.064)" fill="url(#l)"/><path d="M170.393,43.581c-1.378,1.221,13.565,18.092,14.943,16.871.238-.211-.01-.887-.59-1.855a3.8,3.8,0,0,1-.447-1.054l-.009-.037a3.749,3.749,0,0,0-1.466-2.047h0a3.9,3.9,0,0,1-1.373-1.738l-.023-.063a3.838,3.838,0,0,0-1.555-1.845l-.052-.031a3.872,3.872,0,0,1-1.487-1.679l-.025-.056a3.837,3.837,0,0,0-1.644-1.767l-.072-.037a3.845,3.845,0,0,1-1.547-1.566,3.71,3.71,0,0,0-1.842-1.7l-.048-.018a3.8,3.8,0,0,1-.992-.571C171.271,43.7,170.63,43.37,170.393,43.581Z" transform="translate(-165.488 -41.108)" fill="url(#m)"/><path d="M104.373,41.939,102.6,42.991a.8.8,0,0,1-.339.126c-2.382.31-5.359-.53-8.675-.53-3.673,0-7.077.8-9.552.426a.8.8,0,0,1-.678-.86c.2-2.267,3.3-17.152,3.48-17.247l1.5-.89Z" transform="translate(-83.352 -22.685)" fill="url(#n)"/><path d="M104.373,41.939,102.6,42.991a.8.8,0,0,1-.339.126c-2.382.31-5.425-.182-8.741-.182-3.673,0-7.011.45-9.486.078a.8.8,0,0,1-.678-.86c.2-2.267,3.3-17.152,3.48-17.247l1.5-.89Z" transform="translate(-83.352 -22.685)" fill="url(#o)"/><path d="M97.572,39c-2.141,7.356,1.734,9.1,1.539,11.362-.036.421-4.362,6.195-3.944,6.258a74.092,74.092,0,0,0,9.507.247,77.4,77.4,0,0,0,8.72-.143.8.8,0,0,0,.494-1.328L98.938,38.691A.8.8,0,0,0,97.572,39Z" transform="translate(-94.486 -36.297)" fill="url(#p)"/><path d="M83.355,270.5a.8.8,0,0,0,.678.86,66.765,66.765,0,0,0,9.486.6,70.016,70.016,0,0,0,8.741-.5.8.8,0,0,0,.494-1.328l-3.926-4.388H83.907C83.6,267.912,83.433,269.6,83.355,270.5Z" transform="translate(-83.352 -251.034)" fill="url(#q)"/><g transform="translate(1.97 5.097)" opacity="0.6"><g transform="translate(1.684)"><circle cx="0.429" cy="0.429" r="0.429" transform="translate(1.211)" fill="url(#r)"/><circle cx="0.339" cy="0.339" r="0.339" transform="translate(0 0.505)" fill="url(#s)"/><circle cx="0.204" cy="0.204" r="0.204" transform="translate(1.149 1.748)" fill="url(#t)"/></g><g transform="translate(0 11.976)"><circle cx="0.429" cy="0.429" r="0.429" fill="url(#u)"/><circle cx="0.339" cy="0.339" r="0.339" transform="translate(0.168 1.453)" fill="url(#v)"/><circle cx="0.204" cy="0.204" r="0.204" transform="translate(1.629 0.882)" fill="url(#w)"/></g><g transform="translate(3.819 1.279)"><circle cx="0.317" cy="0.317" r="0.317" transform="translate(0.814 0.445)" fill="url(#x)"/><circle cx="0.25" cy="0.25" r="0.25" transform="translate(0.011)" fill="url(#y)"/><circle cx="0.151" cy="0.151" r="0.151" transform="translate(0 1.204)" fill="url(#z)"/></g><g transform="translate(11.091 12.534)"><circle cx="0.317" cy="0.317" r="0.317" transform="translate(0.814 0.445)" fill="url(#aa)"/><circle cx="0.25" cy="0.25" r="0.25" transform="translate(0.011)" fill="url(#ab)"/><circle cx="0.151" cy="0.151" r="0.151" transform="translate(0 1.204)" fill="url(#ac)"/></g></g><g transform="translate(11.325 6.652)"><path d="M375.609,211.123a.205.205,0,1,0,.261.127A.205.205,0,0,0,375.609,211.123Z" transform="translate(-370.62 -206.074)" fill="#ffeaa2"/><path d="M387.727,214.867a.162.162,0,1,0,.1-.206A.162.162,0,0,0,387.727,214.867Z" transform="translate(-382.19 -209.418)" fill="#ffeaa2"/><path d="M395.853,202.984a.1.1,0,1,0,.061-.124A.1.1,0,0,0,395.853,202.984Z" transform="translate(-389.869 -198.274)" fill="#ffeaa2"/><path d="M368.374,174.988a.205.205,0,1,0,0-.29A.205.205,0,0,0,368.374,174.988Z" transform="translate(-363.859 -171.619)" fill="#ffeaa2"/><path d="M330.809,157.124a.162.162,0,1,0,0-.229A.162.162,0,0,0,330.809,157.124Z" transform="translate(-328.386 -154.814)" fill="#ffeaa2"/><path d="M351.748,176.746a.1.1,0,1,0,0-.138A.1.1,0,0,0,351.748,176.746Z" transform="translate(-348.184 -173.454)" fill="#ffeaa2"/><path d="M382.765,196.149a.152.152,0,1,0-.055-.207A.152.152,0,0,0,382.765,196.149Z" transform="translate(-377.44 -191.673)" fill="#ffeaa2"/><path d="M375.577,200.656a.12.12,0,1,0-.043-.164A.12.12,0,0,0,375.577,200.656Z" transform="translate(-370.664 -195.986)" fill="#ffeaa2"/><path d="M384.048,207.2a.072.072,0,1,0,.026.1A.072.072,0,0,0,384.048,207.2Z" transform="translate(-378.62 -202.374)" fill="#ffeaa2"/><path d="M300.766,143.714a.205.205,0,1,0,.261.127A.205.205,0,0,0,300.766,143.714Z" transform="translate(-299.921 -142.398)" fill="#ffeaa2"/><path d="M337.842,171.926a.162.162,0,1,0,.1-.206A.162.162,0,0,0,337.842,171.926Z" transform="translate(-335.067 -168.855)" fill="#ffeaa2"/><path d="M330.293,145.582a.1.1,0,1,0,.061-.124A.1.1,0,0,0,330.293,145.582Z" transform="translate(-327.939 -144.051)" fill="#ffeaa2"/><path d="M290.759,120.484a.205.205,0,1,0,0-.29A.205.205,0,0,0,290.759,120.484Z" transform="translate(-290.542 -120.133)" fill="#ffeaa2"/><path d="M287.921,129.546a.162.162,0,1,0,.229,0A.162.162,0,0,0,287.921,129.546Z" transform="translate(-287.875 -128.979)" fill="#ffeaa2"/><path d="M294.088,137.836a.1.1,0,1,0,0-.138A.1.1,0,0,0,294.088,137.836Z" transform="translate(-293.717 -136.698)" fill="#ffeaa2"/><path d="M322.448,128.076a.152.152,0,1,0-.055-.207A.152.152,0,0,0,322.448,128.076Z" transform="translate(-320.462 -127.369)" fill="#ffeaa2"/><path d="M300.734,133.247a.12.12,0,1,0-.043-.164A.12.12,0,0,0,300.734,133.247Z" transform="translate(-299.966 -132.31)" fill="#ffeaa2"/><path d="M309.205,139.8a.072.072,0,1,0,.026.1A.072.072,0,0,0,309.205,139.8Z" transform="translate(-307.922 -138.698)" fill="#ffeaa2"/></g></g><path d="M86.438,39a92.336,92.336,0,0,0-3.083,16.76.8.8,0,0,0,.678.86,66.771,66.771,0,0,0,9.486.6,70.019,70.019,0,0,0,8.741-.5.8.8,0,0,0,.494-1.328L87.8,38.691A.8.8,0,0,0,86.438,39Z" transform="translate(-79.169 -36.297)" fill="url(#ad)"/><g transform="translate(0 7.312)"><path d="M30.567,150.274a.8.8,0,0,0,.225-1.244l-14.95-16.709a.8.8,0,0,0-1.04-.133l-3.515,2.086a.792.792,0,0,0-.4.486,92.335,92.335,0,0,0-3.083,16.76.8.8,0,0,0,.678.86,66.78,66.78,0,0,0,9.486.6,70.016,70.016,0,0,0,8.741-.5.8.8,0,0,0,.339-.125Z" transform="translate(-7.804 -132.054)" fill="url(#ae)"/><path d="M324.311,389.149l-2.595-2.9-3.187,3.187,2.038,3.046,0,0,3.515-2.086A.8.8,0,0,0,324.311,389.149Z" transform="translate(-301.323 -372.174)" fill="url(#b)"/><path d="M98.863,162.267c-2.7,2.391,12.244,19.262,14.943,16.871.465-.412.406-1.255-.024-2.355a2.86,2.86,0,0,1-.185-1.286l0-.048a2.155,2.155,0,0,0-1.28-2.212h0a2.132,2.132,0,0,1-1.284-1.817l-.006-.078a2.105,2.105,0,0,0-1.513-1.883l-.066-.02a2.1,2.1,0,0,1-1.487-1.679l-.012-.068a2.105,2.105,0,0,0-1.687-1.729l-.093-.019a2.1,2.1,0,0,1-1.632-1.49,2.131,2.131,0,0,0-2.024-1.537l-.065,0a2.86,2.86,0,0,1-1.254-.339C100.158,162.016,99.329,161.855,98.863,162.267Z" transform="translate(-93.514 -160.376)" fill="url(#c)"/><path d="M203.131,250.453a2.86,2.86,0,0,1-.185-1.286l0-.048a2.157,2.157,0,0,0-1.28-2.212h0a2.134,2.134,0,0,1-1.284-1.817l-.006-.077a2.105,2.105,0,0,0-1.513-1.883l-.065-.019a2.1,2.1,0,0,1-1.488-1.679l-.012-.068a2.1,2.1,0,0,0-.808-1.338,2.672,2.672,0,0,1-.627,2.787l-2.742,2.742c3.839,4.471,8.616,8.508,10.031,7.255C203.621,252.4,203.562,251.553,203.131,250.453Z" transform="translate(-182.863 -234.046)" fill="url(#d)"/><circle cx="2.433" cy="2.433" r="2.433" transform="translate(5.199 2.165)" fill="url(#e)"/><circle cx="2.433" cy="2.433" r="2.433" transform="translate(13.081 10.525)" fill="url(#e)"/><g transform="translate(15.275 12.044)"><path d="M288.223,350.352a2.671,2.671,0,1,0,0,3.777A2.671,2.671,0,0,0,288.223,350.352Zm-3.088,3.088a1.7,1.7,0,1,1,2.4,0A1.7,1.7,0,0,1,285.135,353.44Z" transform="translate(-283.664 -349.57)" fill="url(#ak)"/><path d="M292.426,361.472a2.222,2.222,0,1,0,0-3.142A2.222,2.222,0,0,0,292.426,361.472Zm2.77-2.77a1.7,1.7,0,1,1-2.4,0A1.7,1.7,0,0,1,295.2,358.7Z" transform="translate(-291.326 -357.231)" fill="url(#al)"/></g><g transform="translate(8.444 4.206)"><path d="M164.859,208.8a2.671,2.671,0,1,0,0,3.777A2.671,2.671,0,0,0,164.859,208.8Zm-3.088,3.088a1.7,1.7,0,1,1,2.4,0A1.7,1.7,0,0,1,161.772,211.888Z" transform="translate(-160.3 -208.018)" fill="url(#am)"/><path d="M169.062,219.92a2.222,2.222,0,1,0,0-3.142A2.222,2.222,0,0,0,169.062,219.92Zm2.77-2.77a1.7,1.7,0,1,1-2.4,0A1.7,1.7,0,0,1,171.833,217.15Z" transform="translate(-167.962 -215.679)" fill="url(#an)"/></g><path d="M118.768,196.879l.383-.35a1.731,1.731,0,0,0,.182-2.171A49.366,49.366,0,0,0,108.3,182.273a1.731,1.731,0,0,0-2.178-.017l-.383.35a.651.651,0,0,0,.189.991,38.7,38.7,0,0,1,6.546,5.943,38.7,38.7,0,0,1,5.32,7.061A.651.651,0,0,0,118.768,196.879Z" transform="translate(-100.17 -179.121)" fill="url(#ao)"/><g transform="translate(11.412 6.642)"><path d="M230.658,254.38a.205.205,0,1,0-.261-.127A.205.205,0,0,0,230.658,254.38Z" transform="translate(-229.473 -253.871)" fill="#ffeaa2"/><path d="M220.013,252.109a.162.162,0,1,0-.1.206A.162.162,0,0,0,220.013,252.109Z" transform="translate(-219.376 -252)" fill="#ffeaa2"/><path d="M214.084,266.187a.1.1,0,1,0-.061.124A.1.1,0,0,0,214.084,266.187Z" transform="translate(-213.894 -265.34)" fill="#ffeaa2"/><path d="M237.894,290.515a.205.205,0,1,0,0,.29A.205.205,0,0,0,237.894,290.515Z" transform="translate(-236.235 -288.327)" fill="#ffeaa2"/><path d="M276.932,309.853a.162.162,0,1,0,0,.229A.162.162,0,0,0,276.932,309.853Z" transform="translate(-273.181 -306.606)" fill="#ffeaa2"/><path d="M258.189,292.426a.1.1,0,1,0,0,.138A.1.1,0,0,0,258.189,292.426Z" transform="translate(-255.579 -290.161)" fill="#ffeaa2"/><path d="M225.33,271.182a.152.152,0,1,0,.055.207A.152.152,0,0,0,225.33,271.182Z" transform="translate(-224.482 -270.1)" fill="#ffeaa2"/><path d="M233.608,267.764a.12.12,0,1,0,.043.164A.12.12,0,0,0,233.608,267.764Z" transform="translate(-232.346 -266.876)" fill="#ffeaa2"/><path d="M226.759,262.837a.072.072,0,1,0-.026-.1A.072.072,0,0,0,226.759,262.837Z" transform="translate(-226.012 -262.11)" fill="#ffeaa2"/><path d="M305.5,321.789a.205.205,0,1,0-.261-.127A.205.205,0,0,0,305.5,321.789Z" transform="translate(-300.171 -317.547)" fill="#ffeaa2"/><path d="M269.9,295.05a.162.162,0,1,0-.1.206A.162.162,0,0,0,269.9,295.05Z" transform="translate(-266.5 -292.563)" fill="#ffeaa2"/><path d="M279.644,323.589a.1.1,0,1,0-.061.124A.1.1,0,0,0,279.644,323.589Z" transform="translate(-275.823 -319.563)" fill="#ffeaa2"/><path d="M315.51,345.019a.205.205,0,1,0,0,.29A.205.205,0,0,0,315.51,345.019Z" transform="translate(-309.553 -339.813)" fill="#ffeaa2"/><path d="M319.82,337.431a.162.162,0,1,0-.229,0A.162.162,0,0,0,319.82,337.431Z" transform="translate(-313.693 -332.44)" fill="#ffeaa2"/><path d="M315.849,331.335a.1.1,0,1,0,0,.138A.1.1,0,0,0,315.849,331.335Z" transform="translate(-310.046 -326.916)" fill="#ffeaa2"/><path d="M285.647,339.255a.152.152,0,1,0,.055.207A.152.152,0,0,0,285.647,339.255Z" transform="translate(-281.459 -334.404)" fill="#ffeaa2"/><path d="M308.451,335.173a.12.12,0,1,0,.043.164A.12.12,0,0,0,308.451,335.173Z" transform="translate(-303.045 -330.552)" fill="#ffeaa2"/><path d="M301.6,330.246a.072.072,0,1,0-.026-.1A.072.072,0,0,0,301.6,330.246Z" transform="translate(-296.711 -325.786)" fill="#ffeaa2"/></g><path d="M150.391,233.141a7.014,7.014,0,0,0,2.876,2.876.306.306,0,0,0,.45-.27v-2.23a.826.826,0,0,0-.826-.826h-2.23A.306.306,0,0,0,150.391,233.141Z" transform="translate(-142.461 -227.118)" fill="url(#l)"/><path d="M94.846,175.635c-1.379,1.221,13.565,18.092,14.943,16.871.238-.211-.01-.887-.59-1.855a3.8,3.8,0,0,1-.447-1.054l-.009-.037a3.749,3.749,0,0,0-1.466-2.047h0a3.9,3.9,0,0,1-1.373-1.738l-.023-.063a3.838,3.838,0,0,0-1.555-1.845l-.052-.031a3.872,3.872,0,0,1-1.487-1.679l-.025-.056a3.837,3.837,0,0,0-1.644-1.767l-.072-.037a3.845,3.845,0,0,1-1.547-1.566,3.71,3.71,0,0,0-1.842-1.7l-.048-.018a3.8,3.8,0,0,1-.992-.571C95.724,175.752,95.083,175.424,94.846,175.635Z" transform="translate(-89.941 -173.162)" fill="url(#m)"/><path d="M28.826,173.994l-1.773,1.052a.8.8,0,0,1-.339.126,70.05,70.05,0,0,1-8.741.5,66.815,66.815,0,0,1-9.486-.6.8.8,0,0,1-.678-.86,92.344,92.344,0,0,1,3.083-16.76.792.792,0,0,1,.4-.486l1.5-.89Z" transform="translate(-7.805 -154.74)" fill="url(#ar)"/><path d="M28.826,173.994l-1.773,1.052a.8.8,0,0,1-.339.126,70.05,70.05,0,0,1-8.741.5,66.815,66.815,0,0,1-9.486-.6.8.8,0,0,1-.678-.86,96.464,96.464,0,0,1,3.249-16.539.792.792,0,0,1,.4-.486l1.334-1.112Z" transform="translate(-7.805 -154.74)" fill="url(#as)"/><path d="M10.891,171.057a92.335,92.335,0,0,0-3.083,16.76.8.8,0,0,0,.678.86,66.764,66.764,0,0,0,9.486.6,70.017,70.017,0,0,0,8.741-.5.8.8,0,0,0,.494-1.328l-14.95-16.709A.8.8,0,0,0,10.891,171.057Z" transform="translate(-7.805 -168.351)" fill="url(#at)"/><path d="M7.808,402.555a.8.8,0,0,0,.678.86,66.768,66.768,0,0,0,9.486.6,70.016,70.016,0,0,0,8.741-.5.8.8,0,0,0,.494-1.328L23.28,397.8l-14.653.027c-.308,2.163-.742,3.819-.82,4.724Z" transform="translate(-7.805 -383.088)" fill="url(#q)"/><g transform="translate(1.97 5.097)" opacity="0.6"><g transform="translate(1.684)"><circle cx="0.429" cy="0.429" r="0.429" transform="translate(1.211)" fill="url(#av)"/><circle cx="0.339" cy="0.339" r="0.339" transform="translate(0 0.505)" fill="url(#aw)"/><circle cx="0.204" cy="0.204" r="0.204" transform="translate(1.149 1.748)" fill="url(#ax)"/></g><g transform="translate(0 11.976)"><circle cx="0.429" cy="0.429" r="0.429" fill="url(#ay)"/><circle cx="0.339" cy="0.339" r="0.339" transform="translate(0.168 1.453)" fill="url(#az)"/><circle cx="0.204" cy="0.204" r="0.204" transform="translate(1.629 0.882)" fill="url(#ba)"/></g><g transform="translate(3.819 1.279)"><circle cx="0.317" cy="0.317" r="0.317" transform="translate(0.814 0.445)" fill="url(#bb)"/><circle cx="0.25" cy="0.25" r="0.25" transform="translate(0.011)" fill="url(#bc)"/><circle cx="0.151" cy="0.151" r="0.151" transform="translate(0 1.204)" fill="url(#bd)"/></g><g transform="translate(11.091 12.534)"><circle cx="0.317" cy="0.317" r="0.317" transform="translate(0.814 0.445)" fill="url(#be)"/><circle cx="0.25" cy="0.25" r="0.25" transform="translate(0.011)" fill="url(#bf)"/><circle cx="0.151" cy="0.151" r="0.151" transform="translate(0 1.204)" fill="url(#bg)"/></g></g></g></svg>