<svg xmlns="http://www.w3.org/2000/svg" width="19.59" height="17.758" viewBox="0 0 19.59 17.758"><path d="M33.108,22.015h0c-.62-3.02-2.8-4.988-5.635-4.988a7.6,7.6,0,0,0-4.017,1.294A7.576,7.576,0,0,0,19.412,17,5.7,5.7,0,0,0,13.8,22.015c-.809,4.179,1.672,9.706,9.032,12.618a1.672,1.672,0,0,0,1.267,0C31.437,31.667,33.89,26.14,33.108,22.015ZM23.456,32.584c-6.066-2.48-8.169-6.875-7.549-10.165a3.588,3.588,0,0,1,3.505-3.262,5.893,5.893,0,0,1,3.4,1.321,1.078,1.078,0,0,0,1.294,0,5.888,5.888,0,0,1,3.37-1.321,3.625,3.625,0,0,1,3.505,3.235C31.6,25.682,29.522,30.05,23.456,32.584Z" transform="translate(-13.657 -17)" fill="#fff"/></svg>